<?xml version="1.0" encoding="utf-8"?>
<!-- Generator: Adobe Illustrator 26.0.0, SVG Export Plug-In . SVG Version: 6.00 Build 0)  -->
<svg version="1.1" id="Capa_1" xmlns="http://www.w3.org/2000/svg" xmlns:xlink="http://www.w3.org/1999/xlink" x="0px" y="0px"
	 viewBox="0 0 500 500" style="enable-background:new 0 0 500 500;" xml:space="preserve">
<style type="text/css">
	.st0{fill:#FFFFFF;}
</style>
<rect x="-2" width="503" height="500"/>
<g>
	<path class="st0" d="M223.4,412c5.7-15.7-5-18.7-16.3-23.5c-25.9-10.8-42.6-31.9-53.5-56.8c-29.6-66.9-29.3-134,2.8-200.1
		c12.1-24.8,30-45.2,57.2-53.8c14.2-4.5,29.5-4.9,44.1-8.3c11.2-2.6,22-6.8,33.1-10.1c2.2-0.7,5.3-1.2,7-0.2
		c11.5,6.8,22.8,14.2,34.2,21.2c47.5,29.1,53,88.2,11.9,125.9c-2.3,2.1-3.2,6.8-3,10.3c2.2,42.4-3.5,83.2-23.7,121
		c-14.5,27.2-34.1,48.7-65.6,56.3c-1.3,0.3-2.9,1.5-3.4,2.6c-2.8,6.9,0.6,17.2,6.8,21.2c23.5,15.3,49.1,24.2,77.4,23.6
		c16.2-0.3,28.4-8,35.6-22.3c7.4-14.6,6-29.2-3.8-42.5c-7.4-10-17.6-11.8-29.9-11.8c-10.6-0.1-18.2,2.9-25.3,10
		c-0.4-0.5-0.8-1.1-1.2-1.6c4.4-3.5,8.8-7.1,14.8-12c-16.7,4.8-25.9,14.6-31,28.9c-0.7-0.4-1.3-0.8-2-1.2c3.1-5.7,5.4-12,9.5-16.8
		c12.7-15,34.1-18.8,51.8-10c17.4,8.6,26.7,27,23.6,46.7c-3,18.7-19.4,33.1-39.3,35.8c-13.2,1.8-26.2,5.2-39.3,7.7
		c-2,0.4-5.1,0.3-6.1-0.9C272.3,430.9,250.7,417.8,223.4,412z M354.6,173.9c1.8-4.1,3.5-8.2,5.3-12.2c4.6-10.4,6.4-21.1,4.4-34.1
		c-1.2,5.8-2,9.7-2.8,13.7c-0.6-5.3-0.1-10.6-0.6-15.7c-3.3-32.2-30.2-47.9-58.7-45c-3.6,0.4-7.6-0.6-11-2.1
		c-12.6-5.2-25.3-7.1-40.6-4.6c56.7,19.3,74.5,65.2,87.4,116.6c5.4-5.4,10.1-10.1,14.8-14.9c-3.1,4.1-5.7,8.7-9.3,12.3
		c-6.5,6.6-6.9,7.5-2.7,16.4c18.6-12.7,31.2-41.9,27.1-58.2C364.1,154,359.3,164,354.6,173.9z M244.9,117.9c1.1,0.6,2.1,1.2,3.2,1.8
		c0,30.4,0.1,60.8,0,91.1c0,15.2-1.3,30.5-0.3,45.7c0.6,8.9,4.6,17.6,6.7,26.4c0.5,2.2-0.1,4.8-0.6,7.2c-1.9,8.1-5.6,16.1-5.9,24.3
		c-0.8,22.9-0.2,45.9-0.1,68.8c0,0.7,0.5,1.4,1.5,3.8c6.3-3.6,12.8-6.5,18.2-10.7c12.5-9.7,21-22.8,27.9-36.9
		c13.9-28.7,19.8-59.3,21.3-90.9c0.4-9.4,0.1-18.8,0.1-28.8c-18.3,3.4-34.5,1.1-49.3-8.7c2.8,0.3,5.3,1.8,8,2.2
		c11.1,1.8,22.1,3.6,33.3,4.6c2.3,0.2,7.2-3.2,7-4.7c-0.4-4.8,2.9-11.6-3.1-13c0.5-3.1,1.5-5.8,1.2-8.3c-4-27.1-11.5-53-26.4-76.4
		c-8.2-12.8-18.1-23.9-32.2-30.7c-5.5-2.6-10.8-4.1-16.4-0.2c-1.1,0.7-3.5,0.7-4.6,0c-5.6-3.8-11-2.5-16.4,0.1
		c-11.9,5.8-21.1,14.7-28.6,25.5c-18.6,26.6-27.1,56.9-30.8,88.7c-1.4,11.5-2.1,23.1-2.1,34.7c-0.1,11.3,1.3,22.6,1.7,33.9
		c0.4,10.6,5.7,20,7.9,30.2c2.3,11.1,11.5,20.8,17.9,31.6c-5.5-6.4-10.8-12.5-16.4-19.1c5,33,35.6,73.3,55.6,74.2
		c0-52.6,0-105.2,0-158.2c-3.1,0-5.4,0-7.8,0c-16.1-0.1-28.1-8-31.1-23.6c-1.9-9.7-0.7-20.4,1-30.3c2.1-12,6.2-23.7,9.9-37.3
		C210.2,129.9,227.6,123.9,244.9,117.9z M223.4,134.1c-0.7-0.3-1.4-0.7-2.1-1c-4.6,5.2-8.5,11.6-14.1,15.4
		c-16.9,11.6-26.8,33.1-17,53.7c5.6,11.7,12.9,17.8,25,15.9c5.8-0.9,8.6-3.1,8.3-9.7c-0.6-10.8-0.2-21.6-0.2-32.4
		C223.4,161.9,223.4,148,223.4,134.1z M198.8,218.7c7.8,6.2,21.3,7.1,23.6,1.1C214.3,219.4,206,219,198.8,218.7z"/>
</g>
</svg>
